<svg xmlns="http://www.w3.org/2000/svg" xmlns:xlink="http://www.w3.org/1999/xlink" width="500" zoomAndPan="magnify" viewBox="0 0 375 374.999991" height="500" preserveAspectRatio="xMidYMid meet" version="1.0"><defs><g/><clipPath id="id1"><path d="M 99 135 L 302.988281 135 L 302.988281 171 L 99 171 Z M 99 135 " clip-rule="nonzero"/></clipPath><clipPath id="id2"><path d="M 72 151 L 176 151 L 176 174.851562 L 72 174.851562 Z M 72 151 " clip-rule="nonzero"/></clipPath></defs><g clip-path="url(#id1)"><path fill="#ffffff" d="M 295.253906 142.0625 C 287.851562 139.496094 279.960938 139.691406 271.800781 142.644531 C 269.535156 143.464844 267.253906 144.324219 264.835938 145.238281 L 264.726562 145.277344 C 250.839844 150.519531 235.101562 156.460938 217.269531 156.460938 C 215.007812 156.460938 212.726562 156.363281 210.492188 156.171875 C 199.765625 155.257812 189.757812 150.644531 180.078125 146.183594 C 169.660156 141.378906 158.890625 136.417969 146.828125 135.714844 C 135.085938 135.15625 123.398438 135.746094 111.769531 137.484375 L 99.710938 139.335938 L 111.890625 140.019531 C 134.761719 141.304688 154.386719 151.3125 167.375 157.9375 C 184.273438 166.554688 197.617188 170.589844 209.371094 170.628906 C 209.519531 170.628906 209.667969 170.628906 209.816406 170.628906 C 233.429688 170.628906 245.5625 163.492188 257.332031 156.574219 C 267.851562 150.386719 277.785156 144.546875 294.695312 144.546875 L 302.417969 144.546875 Z M 295.253906 142.0625 " fill-opacity="1" fill-rule="nonzero"/></g><path fill="#ffffff" d="M 144.328125 124.253906 C 163.726562 124.253906 174.078125 129.007812 181.636719 132.476562 L 182.546875 132.894531 C 183.933594 133.527344 185.433594 134.316406 187.171875 135.230469 C 195 139.34375 206.066406 145.160156 222.628906 145.160156 C 226.851562 145.148438 231.046875 144.796875 235.214844 144.105469 L 243.332031 142.78125 L 235.195312 141.582031 C 217.34375 138.949219 209.058594 133.316406 201.039062 127.867188 C 194.9375 123.71875 189.175781 119.800781 179.328125 117.332031 C 163.535156 113.371094 146.601562 115.144531 126.042969 122.910156 L 116.273438 126.601562 L 126.640625 125.375 C 132.515625 124.65625 138.410156 124.28125 144.328125 124.253906 Z M 182.171875 131.316406 Z M 182.171875 131.316406 " fill-opacity="1" fill-rule="nonzero"/><g clip-path="url(#id2)"><path fill="#ffffff" d="M 157.871094 166.628906 C 147.25 161.296875 136.265625 155.78125 120.070312 152.664062 C 107.316406 150.210938 93.660156 151.925781 84.453125 153.800781 L 72.535156 156.222656 L 84.695312 156.328125 C 100.769531 156.46875 109.332031 160.46875 116.902344 164.003906 C 118.796875 164.886719 120.585938 165.722656 122.417969 166.460938 C 139.214844 173.230469 154.773438 174.441406 169.078125 174.742188 L 175.398438 174.875 L 169.621094 172.296875 C 165.519531 170.46875 161.632812 168.515625 157.871094 166.628906 Z M 157.871094 166.628906 " fill-opacity="1" fill-rule="nonzero"/></g><g fill="#ffffff" fill-opacity="1"><g transform="translate(85.749031, 219.028682)"><g><path d="M 2.75 -23.6875 L 7.109375 -23.6875 L 7.109375 0 L 2.75 0 Z M 2.75 -23.6875 "/></g></g></g><g fill="#ffffff" fill-opacity="1"><g transform="translate(96.280755, 219.028682)"><g><path d="M 19.609375 -23.6875 L 19.609375 0.46875 L 19.265625 0.46875 L 7.921875 -12.46875 L 6.859375 -13.828125 L 7.03125 -10.53125 L 7.03125 0 L 2.859375 0 L 2.859375 -24.09375 L 3.234375 -24.09375 L 14.40625 -11.046875 L 15.59375 -9.5 L 15.421875 -12.75 L 15.421875 -23.6875 Z M 19.609375 -23.6875 "/></g></g></g><g fill="#ffffff" fill-opacity="1"><g transform="translate(119.416278, 219.028682)"><g><path d="M 7.203125 -19.953125 L 7.203125 -13.734375 L 14.203125 -13.734375 L 14.203125 -9.921875 L 7.203125 -9.921875 L 7.203125 0 L 2.859375 0 L 2.859375 -23.6875 L 15.21875 -23.6875 L 15.21875 -19.953125 Z M 7.203125 -19.953125 "/></g></g></g><g fill="#ffffff" fill-opacity="1"><g transform="translate(135.859219, 219.028682)"><g><path d="M 11.21875 0.40625 C 9.101562 0.40625 7.304688 -0.09375 5.828125 -1.09375 C 4.347656 -2.09375 3.226562 -3.515625 2.46875 -5.359375 C 1.707031 -7.203125 1.328125 -9.367188 1.328125 -11.859375 C 1.328125 -14.328125 1.703125 -16.484375 2.453125 -18.328125 C 3.203125 -20.171875 4.3125 -21.59375 5.78125 -22.59375 C 7.25 -23.59375 9.023438 -24.09375 11.109375 -24.09375 C 13.273438 -24.09375 15.097656 -23.582031 16.578125 -22.5625 C 18.066406 -21.550781 19.179688 -20.128906 19.921875 -18.296875 C 20.660156 -16.460938 21.03125 -14.316406 21.03125 -11.859375 C 21.03125 -9.367188 20.648438 -7.203125 19.890625 -5.359375 C 19.128906 -3.515625 18.007812 -2.09375 16.53125 -1.09375 C 15.0625 -0.09375 13.289062 0.40625 11.21875 0.40625 Z M 11.21875 -3.234375 C 12.226562 -3.234375 13.128906 -3.554688 13.921875 -4.203125 C 14.722656 -4.847656 15.351562 -5.828125 15.8125 -7.140625 C 16.28125 -8.453125 16.515625 -10.0625 16.515625 -11.96875 C 16.515625 -14.757812 16.039062 -16.890625 15.09375 -18.359375 C 14.144531 -19.828125 12.816406 -20.5625 11.109375 -20.5625 C 9.441406 -20.5625 8.148438 -19.828125 7.234375 -18.359375 C 6.328125 -16.890625 5.875 -14.742188 5.875 -11.921875 C 5.875 -10.003906 6.09375 -8.394531 6.53125 -7.09375 C 6.96875 -5.800781 7.582031 -4.832031 8.375 -4.1875 C 9.175781 -3.550781 10.125 -3.234375 11.21875 -3.234375 Z M 11.21875 -3.234375 "/></g></g></g><g fill="#ffffff" fill-opacity="1"><g transform="translate(158.892822, 219.028682)"><g><path d="M 15.9375 -19.84375 L 10.46875 -19.84375 L 10.46875 0 L 6.078125 0 L 6.078125 -19.84375 L 0.609375 -19.84375 L 0.609375 -23.6875 L 15.9375 -23.6875 Z M 15.9375 -19.84375 "/></g></g></g><g fill="#ffffff" fill-opacity="1"><g transform="translate(176.117129, 219.028682)"><g><path d="M 13.90625 -3.4375 L 5.4375 -3.4375 L 4.1875 0 L -0.578125 0 L 9.453125 -24.09375 L 9.78125 -24.09375 L 19.84375 0 L 15.21875 0 Z M 12.640625 -6.734375 L 10.15625 -13.1875 L 9.578125 -15.09375 L 9.046875 -13.1875 L 6.65625 -6.734375 Z M 12.640625 -6.734375 "/></g></g></g><g fill="#ffffff" fill-opacity="1"><g transform="translate(196.059241, 219.028682)"><g><path d="M 19.609375 -23.6875 L 19.609375 0.46875 L 19.265625 0.46875 L 7.921875 -12.46875 L 6.859375 -13.828125 L 7.03125 -10.53125 L 7.03125 0 L 2.859375 0 L 2.859375 -24.09375 L 3.234375 -24.09375 L 14.40625 -11.046875 L 15.59375 -9.5 L 15.421875 -12.75 L 15.421875 -23.6875 Z M 19.609375 -23.6875 "/></g></g></g><g fill="#ffffff" fill-opacity="1"><g transform="translate(219.194764, 219.028682)"><g><path d="M 20.046875 -12.703125 C 20.179688 -11.304688 20.25 -10.207031 20.25 -9.40625 C 20.25 -6.394531 19.59375 -3.972656 18.28125 -2.140625 C 16.96875 -0.304688 14.601562 0.609375 11.1875 0.609375 C 9.28125 0.609375 7.578125 0.109375 6.078125 -0.890625 C 4.578125 -1.898438 3.394531 -3.359375 2.53125 -5.265625 C 1.675781 -7.179688 1.25 -9.445312 1.25 -12.0625 C 1.25 -14.382812 1.695312 -16.457031 2.59375 -18.28125 C 3.488281 -20.101562 4.734375 -21.523438 6.328125 -22.546875 C 7.921875 -23.578125 9.734375 -24.09375 11.765625 -24.09375 C 13.140625 -24.09375 14.28125 -23.984375 15.1875 -23.765625 C 16.101562 -23.554688 16.8125 -23.300781 17.3125 -23 C 17.8125 -22.707031 18.257812 -22.367188 18.65625 -21.984375 L 16.78125 -18.21875 C 15.84375 -19.457031 14.191406 -20.078125 11.828125 -20.078125 C 10.691406 -20.078125 9.664062 -19.742188 8.75 -19.078125 C 7.832031 -18.410156 7.113281 -17.476562 6.59375 -16.28125 C 6.070312 -15.082031 5.8125 -13.710938 5.8125 -12.171875 C 5.8125 -10.304688 6.035156 -8.695312 6.484375 -7.34375 C 6.929688 -5.988281 7.566406 -4.957031 8.390625 -4.25 C 9.210938 -3.539062 10.164062 -3.1875 11.25 -3.1875 C 12.957031 -3.1875 14.1875 -3.585938 14.9375 -4.390625 C 15.695312 -5.203125 16.078125 -6.421875 16.078125 -8.046875 C 16.078125 -8.234375 16.066406 -8.539062 16.046875 -8.96875 L 11.1875 -8.96875 L 11.1875 -12.703125 Z M 20.046875 -12.703125 "/></g></g></g><g fill="#ffffff" fill-opacity="1"><g transform="translate(241.243167, 219.028682)"><g><path d="M 2.75 -23.6875 L 7.109375 -23.6875 L 7.109375 0 L 2.75 0 Z M 2.75 -23.6875 "/></g></g></g><g fill="#ffffff" fill-opacity="1"><g transform="translate(251.77489, 219.028682)"><g><path d="M 15.796875 -3.84375 L 15.796875 0 L 2.75 0 L 2.75 -23.6875 L 15.125 -23.6875 L 15.125 -19.984375 L 7 -19.984375 L 7 -14.4375 L 13.453125 -14.4375 L 13.453125 -10.84375 L 7 -10.84375 L 7 -3.84375 Z M 15.796875 -3.84375 "/></g></g></g><g fill="#ffffff" fill-opacity="1"><g transform="translate(269.644677, 219.028682)"><g><path d="M 13.25 0 L 7.171875 -8.5625 L 7.171875 0 L 2.859375 0 L 2.859375 -23.6875 L 9.453125 -23.6875 C 15.066406 -23.6875 17.875 -21.171875 17.875 -16.140625 C 17.875 -15.015625 17.691406 -13.910156 17.328125 -12.828125 C 16.960938 -11.753906 16.367188 -10.796875 15.546875 -9.953125 C 14.734375 -9.117188 13.6875 -8.539062 12.40625 -8.21875 L 18.515625 0 Z M 8.96875 -10.703125 C 9.9375 -10.703125 10.757812 -10.929688 11.4375 -11.390625 C 12.125 -11.847656 12.644531 -12.457031 13 -13.21875 C 13.351562 -13.988281 13.53125 -14.828125 13.53125 -15.734375 C 13.53125 -17.296875 13.171875 -18.441406 12.453125 -19.171875 C 11.734375 -19.910156 10.539062 -20.28125 8.875 -20.28125 L 7.171875 -20.28125 L 7.171875 -10.703125 Z M 8.96875 -10.703125 "/></g></g></g></svg>