<svg xmlns="http://www.w3.org/2000/svg" xmlns:xlink="http://www.w3.org/1999/xlink" width="500" zoomAndPan="magnify" viewBox="0 0 375 374.999991" height="500" preserveAspectRatio="xMidYMid meet" version="1.0"><defs><g/><clipPath id="id1"><path d="M 99 107 L 276.5625 107 L 276.5625 268 L 99 268 Z M 99 107 " clip-rule="nonzero"/></clipPath><clipPath id="id2"><path d="M 98.8125 106.816406 L 276.5625 106.816406 L 276.5625 268.066406 L 98.8125 268.066406 Z M 98.8125 106.816406 " clip-rule="nonzero"/></clipPath></defs><g clip-path="url(#id1)"><path fill="#bbc9f0" d="M 99.082031 107.082031 L 276.292969 107.082031 L 276.292969 267.796875 L 99.082031 267.796875 L 99.082031 107.082031 " fill-opacity="1" fill-rule="nonzero"/></g><g clip-path="url(#id2)"><path fill="#69b1b0" d="M 99.082031 268.066406 L 98.8125 268.066406 L 98.8125 106.816406 L 276.558594 106.816406 L 276.558594 268.066406 L 99.082031 268.066406 M 99.347656 107.351562 L 99.347656 267.527344 L 276.023438 267.527344 L 276.023438 107.351562 L 99.347656 107.351562 " fill-opacity="1" fill-rule="nonzero"/></g><path fill="#f6fbfb" d="M 104.722656 112.761719 L 270.59375 112.761719 L 270.59375 262.167969 L 104.722656 262.167969 L 104.722656 112.761719 " fill-opacity="1" fill-rule="nonzero"/><g fill="#102697" fill-opacity="1"><g transform="translate(144.613209, 202.697492)"><g><path d="M 3.703125 -13.078125 C 3.703125 -12.773438 3.703125 -12.460938 3.703125 -12.140625 C 3.703125 -11.546875 3.703125 -10.941406 3.703125 -10.328125 C 3.722656 -4.265625 3.804688 0.472656 3.953125 3.890625 C 4.109375 7.316406 4.285156 9.65625 4.484375 10.90625 C 4.691406 12.15625 4.882812 12.554688 5.0625 12.109375 C 5.25 11.660156 5.390625 10.59375 5.484375 8.90625 C 5.578125 7.226562 5.597656 5.160156 5.546875 2.703125 C 5.492188 0.253906 5.320312 -2.34375 5.03125 -5.09375 C 4.75 -7.851562 4.304688 -10.515625 3.703125 -13.078125 Z M 1.46875 -19.765625 C 1.46875 -20.035156 1.46875 -20.320312 1.46875 -20.625 C 1.488281 -20.832031 1.5 -21.046875 1.5 -21.265625 C 1.5 -21.554688 1.554688 -21.8125 1.671875 -22.03125 C 1.796875 -22.257812 2.019531 -22.429688 2.34375 -22.546875 C 2.570312 -22.609375 2.71875 -22.710938 2.78125 -22.859375 C 2.84375 -23.015625 2.863281 -23.1875 2.84375 -23.375 C 2.507812 -25.570312 2.15625 -27.769531 1.78125 -29.96875 C 1.75 -30.3125 1.65625 -30.519531 1.5 -30.59375 C 1.351562 -30.675781 1.097656 -30.703125 0.734375 -30.671875 C -1.335938 -30.390625 -3.503906 -30.023438 -5.765625 -29.578125 C -7.234375 -29.304688 -8.675781 -29.050781 -10.09375 -28.8125 C -11.507812 -28.570312 -12.847656 -28.425781 -14.109375 -28.375 C -14.296875 -28.34375 -14.46875 -28.351562 -14.625 -28.40625 C -14.789062 -28.457031 -14.925781 -28.59375 -15.03125 -28.8125 C -15.144531 -29.15625 -14.898438 -29.453125 -14.296875 -29.703125 C -13.015625 -30.222656 -11.34375 -30.644531 -9.28125 -30.96875 C -7.226562 -31.300781 -5.21875 -31.570312 -3.25 -31.78125 C -2.019531 -31.925781 -0.957031 -32.066406 -0.0625 -32.203125 C 0 -32.222656 0.0625 -32.234375 0.125 -32.234375 C 0.289062 -32.253906 0.460938 -32.285156 0.640625 -32.328125 C 0.816406 -32.378906 0.945312 -32.457031 1.03125 -32.5625 C 1.125 -32.664062 1.15625 -32.816406 1.125 -33.015625 C 1.125 -33.046875 1.125 -33.082031 1.125 -33.125 C 1.082031 -33.28125 1.0625 -33.421875 1.0625 -33.546875 C 1.0625 -34.171875 1.3125 -34.535156 1.8125 -34.640625 C 2.132812 -34.722656 2.425781 -34.710938 2.6875 -34.609375 C 2.957031 -34.503906 3.128906 -34.320312 3.203125 -34.0625 C 3.328125 -33.4375 3.578125 -33.066406 3.953125 -32.953125 C 4.328125 -32.835938 4.757812 -32.820312 5.25 -32.90625 C 13.007812 -33.78125 20.769531 -34.507812 28.53125 -35.09375 C 29.019531 -35.164062 29.5 -35.097656 29.96875 -34.890625 C 30.101562 -34.828125 30.203125 -34.742188 30.265625 -34.640625 C 30.328125 -34.535156 30.335938 -34.421875 30.296875 -34.296875 C 30.273438 -34.222656 30.234375 -34.148438 30.171875 -34.078125 C 30.109375 -34.003906 30.03125 -33.953125 29.9375 -33.921875 C 29.601562 -33.847656 29.238281 -33.796875 28.84375 -33.765625 C 26.101562 -33.617188 23.320312 -33.390625 20.5 -33.078125 C 17.6875 -32.765625 14.882812 -32.429688 12.09375 -32.078125 C 10.21875 -31.847656 8.375 -31.625 6.5625 -31.40625 C 6.007812 -31.34375 5.457031 -31.265625 4.90625 -31.171875 C 4.53125 -31.140625 4.300781 -31.0625 4.21875 -30.9375 C 4.132812 -30.820312 4.132812 -30.570312 4.21875 -30.1875 C 4.707031 -27.539062 5.125 -24.882812 5.46875 -22.21875 C 5.8125 -19.550781 6.128906 -16.882812 6.421875 -14.21875 C 6.765625 -11.09375 7.0625 -7.710938 7.3125 -4.078125 C 7.570312 -0.453125 7.691406 3.164062 7.671875 6.78125 C 7.660156 10.394531 7.40625 13.757812 6.90625 16.875 C 6.820312 17.53125 6.660156 18.175781 6.421875 18.8125 C 6.273438 19.1875 6.054688 19.445312 5.765625 19.59375 C 5.484375 19.738281 5.148438 19.800781 4.765625 19.78125 C 4.078125 19.78125 3.585938 19.484375 3.296875 18.890625 C 2.847656 17.773438 2.582031 16.628906 2.5 15.453125 C 1.988281 9.742188 1.675781 4.234375 1.5625 -1.078125 C 1.457031 -6.390625 1.425781 -11.835938 1.46875 -17.421875 C 1.46875 -18.179688 1.46875 -18.960938 1.46875 -19.765625 Z M 1.46875 -19.765625 "/></g></g></g><g fill="#102697" fill-opacity="1"><g transform="translate(156.928355, 202.697492)"><g><path d="M 13.3125 -7.3125 C 13.425781 -7.289062 13.5 -7.257812 13.53125 -7.21875 C 13.570312 -7.175781 13.617188 -7.09375 13.671875 -6.96875 C 13.710938 -6.84375 13.664062 -6.691406 13.53125 -6.515625 C 13.40625 -6.335938 13.289062 -6.195312 13.1875 -6.09375 C 12.394531 -5.34375 11.460938 -4.894531 10.390625 -4.75 C 9.785156 -4.664062 9.175781 -4.644531 8.5625 -4.6875 C 7.957031 -4.726562 7.359375 -4.878906 6.765625 -5.140625 C 6.335938 -5.347656 5.9375 -5.28125 5.5625 -4.9375 C 4.800781 -4.238281 4.003906 -3.570312 3.171875 -2.9375 C 2.742188 -2.613281 2.296875 -2.34375 1.828125 -2.125 C 1.359375 -1.914062 0.847656 -1.800781 0.296875 -1.78125 C -1.328125 -1.800781 -1.96875 -2.585938 -1.625 -4.140625 C -1.601562 -4.210938 -1.582031 -4.265625 -1.5625 -4.296875 C -1.09375 -5.554688 -0.476562 -6.691406 0.28125 -7.703125 C 1.050781 -8.722656 2.023438 -9.570312 3.203125 -10.25 C 3.972656 -10.707031 4.804688 -10.882812 5.703125 -10.78125 C 5.929688 -10.726562 6.15625 -10.640625 6.375 -10.515625 C 6.632812 -10.390625 6.738281 -10.1875 6.6875 -9.90625 C 6.664062 -9.8125 6.625 -9.734375 6.5625 -9.671875 C 6.5 -9.609375 6.4375 -9.550781 6.375 -9.5 C 6.332031 -9.445312 6.28125 -9.410156 6.21875 -9.390625 C 6.15625 -9.367188 6.085938 -9.359375 6.015625 -9.359375 C 5.378906 -9.335938 4.828125 -9.148438 4.359375 -8.796875 C 3.898438 -8.453125 3.484375 -8.054688 3.109375 -7.609375 C 2.679688 -7.128906 2.285156 -6.601562 1.921875 -6.03125 C 1.554688 -5.457031 1.257812 -4.773438 1.03125 -3.984375 C 1.882812 -4.472656 2.554688 -4.960938 3.046875 -5.453125 C 3.148438 -5.554688 3.253906 -5.65625 3.359375 -5.75 C 3.441406 -5.832031 3.53125 -5.910156 3.625 -5.984375 C 4.050781 -6.378906 4.492188 -6.726562 4.953125 -7.03125 C 5.492188 -7.320312 6.023438 -7.46875 6.546875 -7.46875 C 7.066406 -7.46875 7.578125 -7.253906 8.078125 -6.828125 C 8.753906 -6.234375 9.410156 -6 10.046875 -6.125 C 10.691406 -6.257812 11.289062 -6.488281 11.84375 -6.8125 C 12.40625 -7.144531 12.894531 -7.3125 13.3125 -7.3125 Z M 13.3125 -7.3125 "/></g></g></g><g fill="#102697" fill-opacity="1"><g transform="translate(169.243502, 202.697492)"><g><path d="M 19.1875 -6.828125 C 19.1875 -6.828125 19.195312 -6.828125 19.21875 -6.828125 C 19.332031 -6.816406 19.441406 -6.78125 19.546875 -6.71875 C 19.648438 -6.664062 19.71875 -6.5625 19.75 -6.40625 C 19.800781 -6.132812 19.722656 -5.921875 19.515625 -5.765625 C 18.640625 -5.160156 17.703125 -4.679688 16.703125 -4.328125 C 15.804688 -4.035156 14.898438 -3.851562 13.984375 -3.78125 C 13.066406 -3.707031 12.140625 -3.710938 11.203125 -3.796875 C 9.984375 -3.921875 9.003906 -4.5 8.265625 -5.53125 C 8.023438 -5.84375 7.785156 -6.160156 7.546875 -6.484375 C 7.316406 -6.804688 7.070312 -7.132812 6.8125 -7.46875 C 6.601562 -7.75 6.335938 -7.785156 6.015625 -7.578125 C 5.628906 -7.296875 5.28125 -6.976562 4.96875 -6.625 C 4.664062 -6.269531 4.375 -5.90625 4.09375 -5.53125 C 4.082031 -5.476562 4.0625 -5.429688 4.03125 -5.390625 C 3.925781 -5.265625 3.816406 -5.125 3.703125 -4.96875 C 3.578125 -4.738281 3.429688 -4.523438 3.265625 -4.328125 C 2.984375 -4.015625 2.617188 -3.8125 2.171875 -3.71875 C 1.734375 -3.625 1.3125 -3.660156 0.90625 -3.828125 C 0.601562 -3.984375 0.40625 -4.207031 0.3125 -4.5 C 0.0390625 -5.59375 -0.125 -6.691406 -0.1875 -7.796875 C -0.1875 -8.398438 0.0859375 -8.753906 0.640625 -8.859375 C 1.273438 -9.003906 1.734375 -8.800781 2.015625 -8.25 C 2.054688 -8.15625 2.085938 -8.046875 2.109375 -7.921875 C 2.140625 -7.796875 2.179688 -7.671875 2.234375 -7.546875 C 2.285156 -7.429688 2.382812 -7.332031 2.53125 -7.25 C 2.707031 -7.394531 2.867188 -7.53125 3.015625 -7.65625 C 3.347656 -7.957031 3.675781 -8.25 4 -8.53125 C 4.382812 -8.851562 4.789062 -9.082031 5.21875 -9.21875 C 5.644531 -9.351562 6.101562 -9.421875 6.59375 -9.421875 C 7.71875 -9.421875 8.613281 -8.972656 9.28125 -8.078125 C 9.40625 -7.890625 9.535156 -7.707031 9.671875 -7.53125 C 9.960938 -7.082031 10.269531 -6.65625 10.59375 -6.25 C 11.101562 -5.59375 11.785156 -5.253906 12.640625 -5.234375 C 13.515625 -5.191406 14.347656 -5.269531 15.140625 -5.46875 C 15.941406 -5.664062 16.71875 -5.972656 17.46875 -6.390625 C 17.5 -6.398438 17.53125 -6.421875 17.5625 -6.453125 C 17.8125 -6.597656 18.070312 -6.710938 18.34375 -6.796875 C 18.613281 -6.890625 18.894531 -6.898438 19.1875 -6.828125 Z M 19.1875 -6.828125 "/></g></g></g><g fill="#102697" fill-opacity="1"><g transform="translate(187.185514, 202.697492)"><g><path d="M 15.734375 -7.453125 C 15.929688 -7.378906 16.039062 -7.238281 16.0625 -7.03125 C 16.082031 -6.832031 16.023438 -6.648438 15.890625 -6.484375 C 15.765625 -6.328125 15.585938 -6.132812 15.359375 -5.90625 C 15.140625 -5.6875 14.925781 -5.472656 14.71875 -5.265625 C 14.539062 -5.117188 14.398438 -4.992188 14.296875 -4.890625 C 12.316406 -2.921875 10.429688 -0.867188 8.640625 1.265625 C 8.398438 1.515625 8.207031 1.78125 8.0625 2.0625 C 7.914062 2.351562 7.820312 2.679688 7.78125 3.046875 C 7.625 4.578125 7.335938 6.472656 6.921875 8.734375 C 6.503906 11.003906 5.945312 13.222656 5.25 15.390625 C 4.5625 17.566406 3.753906 19.285156 2.828125 20.546875 C 2.128906 21.421875 1.222656 21.898438 0.109375 21.984375 C -1.648438 22.035156 -2.65625 21.179688 -2.90625 19.421875 C -3.082031 17.722656 -2.84375 15.925781 -2.1875 14.03125 C -1.539062 12.132812 -0.6875 10.304688 0.375 8.546875 C 1.445312 6.785156 2.515625 5.296875 3.578125 4.078125 C 4.085938 3.378906 4.5625 2.179688 5 0.484375 C 5.4375 -1.210938 5.707031 -2.691406 5.8125 -3.953125 C 5.863281 -4.597656 5.820312 -4.953125 5.6875 -5.015625 C 5.5625 -5.078125 5.328125 -5 4.984375 -4.78125 C 4.679688 -4.613281 4.316406 -4.453125 3.890625 -4.296875 C 3.460938 -4.140625 2.957031 -4.070312 2.375 -4.09375 C 1.5625 -4.175781 0.96875 -4.484375 0.59375 -5.015625 C 0.21875 -5.546875 0.0234375 -6.164062 0.015625 -6.875 C 0.00390625 -7.59375 0.113281 -8.253906 0.34375 -8.859375 C 0.625 -9.453125 0.992188 -10.003906 1.453125 -10.515625 C 1.910156 -11.023438 2.40625 -11.484375 2.9375 -11.890625 C 3.820312 -12.535156 4.765625 -12.660156 5.765625 -12.265625 C 5.910156 -12.203125 6.03125 -12.113281 6.125 -12 C 6.21875 -11.882812 6.253906 -11.742188 6.234375 -11.578125 C 6.210938 -11.421875 6.15625 -11.304688 6.0625 -11.234375 C 5.96875 -11.160156 5.859375 -11.113281 5.734375 -11.09375 C 4.878906 -10.769531 4.1875 -10.222656 3.65625 -9.453125 C 3.132812 -8.679688 2.8125 -7.9375 2.6875 -7.21875 C 2.5625 -6.5 2.671875 -6.050781 3.015625 -5.875 C 3.242188 -5.832031 3.546875 -5.941406 3.921875 -6.203125 C 4.296875 -6.472656 4.648438 -6.785156 4.984375 -7.140625 C 5.328125 -7.503906 5.578125 -7.773438 5.734375 -7.953125 C 6.191406 -8.585938 6.832031 -8.898438 7.65625 -8.890625 C 8.5625 -8.867188 9.015625 -8.414062 9.015625 -7.53125 C 8.992188 -6.914062 8.929688 -6.257812 8.828125 -5.5625 C 8.703125 -4.707031 8.640625 -3.945312 8.640625 -3.28125 C 8.703125 -2.664062 9.007812 -2.535156 9.5625 -2.890625 C 10.113281 -3.242188 10.878906 -3.863281 11.859375 -4.75 C 12.410156 -5.25 12.925781 -5.71875 13.40625 -6.15625 C 13.894531 -6.59375 14.316406 -6.9375 14.671875 -7.1875 C 15.023438 -7.445312 15.378906 -7.535156 15.734375 -7.453125 Z M 1.921875 17.453125 C 2.390625 16.171875 2.9375 14.351562 3.5625 12 C 4.195312 9.644531 4.566406 7.800781 4.671875 6.46875 C 4.328125 7.019531 4.0625 7.40625 3.875 7.625 C 3.78125 7.726562 3.710938 7.820312 3.671875 7.90625 C 2.734375 9.382812 1.882812 10.90625 1.125 12.46875 C 0.582031 13.570312 0.175781 14.644531 -0.09375 15.6875 C -0.375 16.738281 -0.503906 17.878906 -0.484375 19.109375 C -0.484375 19.597656 -0.425781 19.953125 -0.3125 20.171875 C -0.207031 20.398438 -0.03125 20.390625 0.21875 20.140625 C 0.945312 19.347656 1.515625 18.453125 1.921875 17.453125 Z M 1.921875 17.453125 "/></g></g></g><g fill="#102697" fill-opacity="1"><g transform="translate(201.390823, 202.697492)"><g><path d="M 10.59375 -7.28125 C 10.71875 -7.21875 10.773438 -7.101562 10.765625 -6.9375 C 10.753906 -6.78125 10.703125 -6.640625 10.609375 -6.515625 C 9.953125 -5.535156 9.242188 -4.664062 8.484375 -3.90625 C 7.734375 -3.15625 6.90625 -2.59375 6 -2.21875 C 5.09375 -1.84375 4.050781 -1.738281 2.875 -1.90625 C 2.09375 -2.03125 1.503906 -2.296875 1.109375 -2.703125 C 0.710938 -3.109375 0.414062 -3.6875 0.21875 -4.4375 C -0.101562 -5.601562 -0.175781 -6.8125 0 -8.0625 C 0.144531 -8.769531 0.59375 -9.140625 1.34375 -9.171875 C 2.007812 -9.171875 2.367188 -8.875 2.421875 -8.28125 C 2.441406 -7.78125 2.441406 -7.289062 2.421875 -6.8125 C 2.421875 -6.738281 2.421875 -6.671875 2.421875 -6.609375 C 2.390625 -5.285156 2.609375 -4.378906 3.078125 -3.890625 C 3.546875 -3.398438 4.15625 -3.269531 4.90625 -3.5 C 5.664062 -3.738281 6.472656 -4.273438 7.328125 -5.109375 C 7.429688 -5.210938 7.5625 -5.351562 7.71875 -5.53125 C 7.882812 -5.71875 8.066406 -5.90625 8.265625 -6.09375 C 8.535156 -6.375 8.753906 -6.613281 8.921875 -6.8125 C 9.460938 -7.34375 10.019531 -7.5 10.59375 -7.28125 Z M 1.15625 -11.3125 C 0.5625 -11.351562 0.21875 -11.671875 0.125 -12.265625 C 0.0625 -12.734375 0.132812 -13.179688 0.34375 -13.609375 C 0.539062 -13.972656 0.859375 -14.222656 1.296875 -14.359375 C 1.734375 -14.503906 2.144531 -14.46875 2.53125 -14.25 C 2.675781 -14.175781 2.78125 -14.066406 2.84375 -13.921875 C 2.90625 -13.785156 2.925781 -13.671875 2.90625 -13.578125 C 2.882812 -12.046875 2.300781 -11.289062 1.15625 -11.3125 Z M 1.15625 -11.3125 "/></g></g></g><g fill="#102697" fill-opacity="1"><g transform="translate(210.303676, 202.697492)"><g><path d="M 3.09375 -5.6875 C 3.070312 -5.6875 3.054688 -5.6875 3.046875 -5.6875 C 3.046875 -5.6875 3.050781 -5.6875 3.0625 -5.6875 C 3.0625 -5.6875 3.070312 -5.6875 3.09375 -5.6875 Z M 13.28125 -7.15625 C 13.382812 -7.21875 13.550781 -7.296875 13.78125 -7.390625 C 14.019531 -7.484375 14.242188 -7.535156 14.453125 -7.546875 C 14.671875 -7.566406 14.820312 -7.488281 14.90625 -7.3125 C 14.96875 -7.1875 14.984375 -7.066406 14.953125 -6.953125 C 14.921875 -6.835938 14.863281 -6.734375 14.78125 -6.640625 C 14.238281 -6.054688 13.40625 -5.46875 12.28125 -4.875 C 11.164062 -4.28125 10.007812 -3.753906 8.8125 -3.296875 C 7.613281 -2.847656 6.613281 -2.550781 5.8125 -2.40625 C 4.90625 -2.25 3.984375 -2.210938 3.046875 -2.296875 C 1.890625 -2.441406 1.03125 -2.914062 0.46875 -3.71875 C -0.09375 -4.53125 -0.320312 -5.441406 -0.21875 -6.453125 C -0.0507812 -7.578125 0.460938 -8.472656 1.328125 -9.140625 C 2.191406 -9.804688 3.179688 -10.050781 4.296875 -9.875 C 4.972656 -9.789062 5.585938 -9.539062 6.140625 -9.125 C 6.734375 -8.644531 7 -8.085938 6.9375 -7.453125 C 6.875 -6.828125 6.5 -6.34375 5.8125 -6 C 5.457031 -5.832031 5.0625 -5.722656 4.625 -5.671875 C 4.1875 -5.628906 3.675781 -5.632812 3.09375 -5.6875 C 3.09375 -5.6875 3.078125 -5.6875 3.046875 -5.6875 C 3.023438 -5.6875 2.984375 -5.6875 2.921875 -5.6875 C 2.859375 -5.6875 2.789062 -5.6875 2.71875 -5.6875 C 2.539062 -5.6875 2.425781 -5.632812 2.375 -5.53125 C 2.320312 -5.4375 2.320312 -5.316406 2.375 -5.171875 C 2.6875 -4.378906 3.3125 -3.960938 4.25 -3.921875 C 5.1875 -3.878906 6.25 -4.054688 7.4375 -4.453125 C 8.625 -4.847656 9.75 -5.304688 10.8125 -5.828125 C 11.882812 -6.347656 12.707031 -6.789062 13.28125 -7.15625 Z M 3.0625 -8.078125 C 2.914062 -7.972656 2.816406 -7.847656 2.765625 -7.703125 C 2.710938 -7.566406 2.679688 -7.453125 2.671875 -7.359375 C 2.660156 -7.265625 2.675781 -7.207031 2.71875 -7.1875 C 2.757812 -7.164062 2.878906 -7.132812 3.078125 -7.09375 C 3.285156 -7.0625 3.507812 -7.054688 3.75 -7.078125 C 4 -7.109375 4.203125 -7.164062 4.359375 -7.25 C 4.523438 -7.332031 4.582031 -7.476562 4.53125 -7.6875 C 4.425781 -7.988281 4.21875 -8.175781 3.90625 -8.25 C 3.601562 -8.332031 3.320312 -8.273438 3.0625 -8.078125 Z M 3.0625 -8.078125 "/></g></g></g><g fill="#102697" fill-opacity="1"><g transform="translate(223.738375, 202.697492)"><g><path d="M 12.921875 -6.859375 C 13.285156 -7.234375 13.601562 -7.378906 13.875 -7.296875 C 14.15625 -7.222656 14.328125 -7.019531 14.390625 -6.6875 C 14.460938 -6.351562 14.367188 -5.984375 14.109375 -5.578125 C 13.578125 -4.796875 12.820312 -3.953125 11.84375 -3.046875 C 10.875 -2.140625 9.828125 -1.347656 8.703125 -0.671875 C 7.585938 -0.00390625 6.535156 0.359375 5.546875 0.421875 C 3.515625 0.523438 2.5625 -0.441406 2.6875 -2.484375 C 2.707031 -2.753906 2.757812 -3.117188 2.84375 -3.578125 C 2.9375 -4.023438 3.007812 -4.457031 3.0625 -4.875 C 3.113281 -5.289062 3.085938 -5.570312 2.984375 -5.71875 C 2.847656 -5.84375 2.691406 -5.90625 2.515625 -5.90625 C 2.347656 -5.90625 2.171875 -5.882812 1.984375 -5.84375 C 1.765625 -5.789062 1.5625 -5.78125 1.375 -5.8125 C 0.382812 -5.925781 -0.125 -6.4375 -0.15625 -7.34375 C -0.175781 -8.601562 0.0507812 -9.8125 0.53125 -10.96875 C 0.6875 -11.320312 0.976562 -11.554688 1.40625 -11.671875 C 1.832031 -11.785156 2.226562 -11.738281 2.59375 -11.53125 C 2.820312 -11.382812 2.925781 -11.1875 2.90625 -10.9375 C 2.863281 -10.582031 2.800781 -10.238281 2.71875 -9.90625 C 2.675781 -9.757812 2.644531 -9.609375 2.625 -9.453125 C 2.4375 -8.554688 2.4375 -8.09375 2.625 -8.0625 C 2.8125 -8.03125 3.226562 -8.269531 3.875 -8.78125 C 4.34375 -9.125 4.863281 -9.265625 5.4375 -9.203125 C 6.207031 -9.140625 6.519531 -8.710938 6.375 -7.921875 C 6.25 -7.390625 6.117188 -6.847656 5.984375 -6.296875 C 5.691406 -5.160156 5.46875 -4.015625 5.3125 -2.859375 C 5.25 -2.078125 5.382812 -1.617188 5.71875 -1.484375 C 6.0625 -1.359375 6.515625 -1.441406 7.078125 -1.734375 C 7.648438 -2.023438 8.25 -2.414062 8.875 -2.90625 C 9.5 -3.394531 10.050781 -3.875 10.53125 -4.34375 C 11.007812 -4.8125 11.335938 -5.148438 11.515625 -5.359375 C 11.597656 -5.472656 11.726562 -5.625 11.90625 -5.8125 C 12.09375 -6 12.285156 -6.191406 12.484375 -6.390625 C 12.691406 -6.597656 12.835938 -6.753906 12.921875 -6.859375 Z M 12.921875 -6.859375 "/></g></g></g><g fill="#102697" fill-opacity="1"><g transform="translate(171.94435, 179.801062)"><g><path d="M 1.828125 -11.203125 L 3.015625 -11.203125 L 3.015625 0 L 1.828125 0 Z M 1.828125 -11.203125 "/></g></g></g><g fill="#102697" fill-opacity="1"><g transform="translate(176.775187, 179.801062)"><g><path d="M 5.875 -8.484375 C 6.925781 -8.484375 7.765625 -8.175781 8.390625 -7.5625 C 9.015625 -6.945312 9.328125 -6.050781 9.328125 -4.875 L 9.328125 0 L 8.1875 0 L 8.1875 -4.765625 C 8.1875 -5.640625 7.96875 -6.304688 7.53125 -6.765625 C 7.09375 -7.222656 6.46875 -7.453125 5.65625 -7.453125 C 4.75 -7.453125 4.03125 -7.179688 3.5 -6.640625 C 2.976562 -6.109375 2.71875 -5.367188 2.71875 -4.421875 L 2.71875 0 L 1.578125 0 L 1.578125 -8.421875 L 2.671875 -8.421875 L 2.671875 -6.859375 C 2.984375 -7.367188 3.410156 -7.765625 3.953125 -8.046875 C 4.503906 -8.335938 5.144531 -8.484375 5.875 -8.484375 Z M 5.875 -8.484375 "/></g></g></g><g fill="#102697" fill-opacity="1"><g transform="translate(187.604581, 179.801062)"><g><path d="M 4.375 -10.984375 C 3.875 -10.984375 3.5 -10.847656 3.25 -10.578125 C 3 -10.316406 2.875 -9.925781 2.875 -9.40625 L 2.875 -8.421875 L 5.46875 -8.421875 L 5.46875 -7.453125 L 2.90625 -7.453125 L 2.90625 0 L 1.78125 0 L 1.78125 -7.453125 L 0.265625 -7.453125 L 0.265625 -8.421875 L 1.78125 -8.421875 L 1.78125 -9.453125 C 1.78125 -10.222656 2 -10.832031 2.4375 -11.28125 C 2.882812 -11.726562 3.507812 -11.953125 4.3125 -11.953125 C 4.632812 -11.953125 4.945312 -11.90625 5.25 -11.8125 C 5.550781 -11.726562 5.800781 -11.597656 6 -11.421875 L 5.609375 -10.578125 C 5.285156 -10.847656 4.875 -10.984375 4.375 -10.984375 Z M 4.375 -10.984375 "/></g></g></g><g fill="#102697" fill-opacity="1"><g transform="translate(193.027284, 179.801062)"><g><path d="M 5.03125 0.078125 C 4.21875 0.078125 3.484375 -0.101562 2.828125 -0.46875 C 2.179688 -0.84375 1.671875 -1.351562 1.296875 -2 C 0.921875 -2.644531 0.734375 -3.378906 0.734375 -4.203125 C 0.734375 -5.023438 0.921875 -5.757812 1.296875 -6.40625 C 1.671875 -7.0625 2.179688 -7.570312 2.828125 -7.9375 C 3.484375 -8.300781 4.21875 -8.484375 5.03125 -8.484375 C 5.832031 -8.484375 6.554688 -8.300781 7.203125 -7.9375 C 7.859375 -7.570312 8.367188 -7.0625 8.734375 -6.40625 C 9.109375 -5.757812 9.296875 -5.023438 9.296875 -4.203125 C 9.296875 -3.378906 9.109375 -2.644531 8.734375 -2 C 8.367188 -1.351562 7.859375 -0.84375 7.203125 -0.46875 C 6.554688 -0.101562 5.832031 0.078125 5.03125 0.078125 Z M 5.03125 -0.921875 C 5.625 -0.921875 6.15625 -1.054688 6.625 -1.328125 C 7.101562 -1.609375 7.472656 -2 7.734375 -2.5 C 8.003906 -3 8.140625 -3.566406 8.140625 -4.203125 C 8.140625 -4.847656 8.003906 -5.421875 7.734375 -5.921875 C 7.472656 -6.421875 7.101562 -6.804688 6.625 -7.078125 C 6.15625 -7.347656 5.625 -7.484375 5.03125 -7.484375 C 4.425781 -7.484375 3.882812 -7.347656 3.40625 -7.078125 C 2.9375 -6.804688 2.566406 -6.421875 2.296875 -5.921875 C 2.023438 -5.421875 1.890625 -4.847656 1.890625 -4.203125 C 1.890625 -3.566406 2.023438 -3 2.296875 -2.5 C 2.566406 -2 2.9375 -1.609375 3.40625 -1.328125 C 3.882812 -1.054688 4.425781 -0.921875 5.03125 -0.921875 Z M 5.03125 -0.921875 "/></g></g></g></svg>